<mxfile host="app.diagrams.net" agent="Mozilla/5.0 (X11; Linux x86_64) AppleWebKit/537.36 (KHTML, like Gecko) Chrome/131.0.0.0 Safari/537.36" version="26.0.2">
  <diagram id="Ht1M8jgEwFfnCIfOTk4-" name="Page-1">
    <mxGraphModel dx="2876" dy="2249" grid="1" gridSize="10" guides="1" tooltips="1" connect="1" arrows="1" fold="1" page="1" pageScale="1" pageWidth="827" pageHeight="1169" math="0" shadow="0">
      <root>
        <mxCell id="0" />
        <mxCell id="1" parent="0" />
        <mxCell id="iYWicuMfS2cpyW_Yxhfx-48" value="us-east-1c" style="fillColor=none;strokeColor=#147EBA;dashed=1;verticalAlign=top;fontStyle=0;fontColor=#147EBA;whiteSpace=wrap;html=1;" vertex="1" parent="1">
          <mxGeometry x="975" y="120" width="330" height="600" as="geometry" />
        </mxCell>
        <mxCell id="iYWicuMfS2cpyW_Yxhfx-66" value="us-east-1 (N. Virginia)" style="shape=mxgraph.ibm.box;prType=region;fontStyle=0;verticalAlign=top;align=left;spacingLeft=32;spacingTop=4;fillColor=none;rounded=0;whiteSpace=wrap;html=1;strokeColor=#919191;strokeWidth=2;dashed=0;container=1;spacing=-4;collapsible=0;expand=0;recursiveResize=0;" vertex="1" parent="1">
          <mxGeometry x="-200" y="-26" width="1710" height="796" as="geometry" />
        </mxCell>
        <mxCell id="iYWicuMfS2cpyW_Yxhfx-69" value="proy-network" style="sketch=0;outlineConnect=0;fontColor=#232F3E;gradientColor=none;fillColor=#E7157B;strokeColor=none;dashed=0;verticalLabelPosition=bottom;verticalAlign=top;align=center;html=1;fontSize=12;fontStyle=0;aspect=fixed;pointerEvents=1;shape=mxgraph.aws4.stack;" vertex="1" parent="iYWicuMfS2cpyW_Yxhfx-66">
          <mxGeometry x="1590" y="446" width="78" height="76" as="geometry" />
        </mxCell>
        <mxCell id="iYWicuMfS2cpyW_Yxhfx-50" value="&lt;div&gt;proy-vpc:&lt;/div&gt;&lt;div&gt;192.168.0.0/16&lt;/div&gt;" style="points=[[0,0],[0.25,0],[0.5,0],[0.75,0],[1,0],[1,0.25],[1,0.5],[1,0.75],[1,1],[0.75,1],[0.5,1],[0.25,1],[0,1],[0,0.75],[0,0.5],[0,0.25]];outlineConnect=0;gradientColor=none;html=1;whiteSpace=wrap;fontSize=12;fontStyle=0;container=1;pointerEvents=0;collapsible=0;recursiveResize=0;shape=mxgraph.aws4.group;grIcon=mxgraph.aws4.group_vpc2;strokeColor=#8C4FFF;fillColor=none;verticalAlign=top;align=left;spacingLeft=30;fontColor=#8C4FFF;dashed=0;" vertex="1" parent="1">
          <mxGeometry x="-150" y="140" width="1480" height="600" as="geometry" />
        </mxCell>
        <mxCell id="iYWicuMfS2cpyW_Yxhfx-52" value="proy-igw" style="sketch=0;outlineConnect=0;fontColor=#232F3E;gradientColor=none;fillColor=#8C4FFF;strokeColor=none;dashed=0;verticalLabelPosition=bottom;verticalAlign=top;align=center;html=1;fontSize=12;fontStyle=0;aspect=fixed;pointerEvents=1;shape=mxgraph.aws4.internet_gateway;" vertex="1" parent="iYWicuMfS2cpyW_Yxhfx-50">
          <mxGeometry x="1045" y="-42" width="78" height="78" as="geometry" />
        </mxCell>
        <mxCell id="iYWicuMfS2cpyW_Yxhfx-24" value="proy-public-subnet-1:&lt;div&gt;192.168.1.0/24&lt;/div&gt;" style="points=[[0,0],[0.25,0],[0.5,0],[0.75,0],[1,0],[1,0.25],[1,0.5],[1,0.75],[1,1],[0.75,1],[0.5,1],[0.25,1],[0,1],[0,0.75],[0,0.5],[0,0.25]];outlineConnect=0;gradientColor=none;html=1;whiteSpace=wrap;fontSize=12;fontStyle=0;container=1;pointerEvents=0;collapsible=0;recursiveResize=0;shape=mxgraph.aws4.group;grIcon=mxgraph.aws4.group_security_group;grStroke=0;strokeColor=#7AA116;fillColor=#F2F6E8;verticalAlign=top;align=left;spacingLeft=30;fontColor=#248814;dashed=0;" vertex="1" parent="1">
          <mxGeometry x="10" y="160" width="260" height="240" as="geometry" />
        </mxCell>
        <mxCell id="iYWicuMfS2cpyW_Yxhfx-25" value="proy-TestInstance" style="sketch=0;outlineConnect=0;fontColor=#232F3E;gradientColor=none;fillColor=#ED7100;strokeColor=none;dashed=0;verticalLabelPosition=bottom;verticalAlign=top;align=center;html=1;fontSize=12;fontStyle=0;aspect=fixed;pointerEvents=1;shape=mxgraph.aws4.instance2;" vertex="1" parent="iYWicuMfS2cpyW_Yxhfx-24">
          <mxGeometry x="150" y="20" width="48" height="48" as="geometry" />
        </mxCell>
        <mxCell id="iYWicuMfS2cpyW_Yxhfx-27" value="NAT GW" style="sketch=0;outlineConnect=0;fontColor=#232F3E;gradientColor=none;fillColor=#8C4FFF;strokeColor=none;dashed=0;verticalLabelPosition=bottom;verticalAlign=top;align=center;html=1;fontSize=12;fontStyle=0;aspect=fixed;pointerEvents=1;shape=mxgraph.aws4.nat_gateway;" vertex="1" parent="iYWicuMfS2cpyW_Yxhfx-24">
          <mxGeometry x="20" y="100" width="78" height="78" as="geometry" />
        </mxCell>
        <mxCell id="iYWicuMfS2cpyW_Yxhfx-45" value="us-east-1a" style="fillColor=none;strokeColor=#147EBA;dashed=1;verticalAlign=top;fontStyle=0;fontColor=#147EBA;whiteSpace=wrap;html=1;" vertex="1" parent="1">
          <mxGeometry x="-25" y="120" width="330" height="600" as="geometry" />
        </mxCell>
        <mxCell id="iYWicuMfS2cpyW_Yxhfx-35" value="proy-public-subnet-3&lt;span style=&quot;background-color: transparent; color: light-dark(rgb(36, 136, 20), rgb(85, 171, 71));&quot;&gt;:&lt;/span&gt;&lt;div&gt;&lt;div&gt;192.168.3.0/24&lt;/div&gt;&lt;/div&gt;" style="points=[[0,0],[0.25,0],[0.5,0],[0.75,0],[1,0],[1,0.25],[1,0.5],[1,0.75],[1,1],[0.75,1],[0.5,1],[0.25,1],[0,1],[0,0.75],[0,0.5],[0,0.25]];outlineConnect=0;gradientColor=none;html=1;whiteSpace=wrap;fontSize=12;fontStyle=0;container=1;pointerEvents=0;collapsible=0;recursiveResize=0;shape=mxgraph.aws4.group;grIcon=mxgraph.aws4.group_security_group;grStroke=0;strokeColor=#7AA116;fillColor=#F2F6E8;verticalAlign=top;align=left;spacingLeft=30;fontColor=#248814;dashed=0;" vertex="1" parent="1">
          <mxGeometry x="1010" y="160" width="260" height="240" as="geometry" />
        </mxCell>
        <mxCell id="iYWicuMfS2cpyW_Yxhfx-32" value="proy-public-subnet-2&lt;span style=&quot;background-color: transparent; color: light-dark(rgb(36, 136, 20), rgb(85, 171, 71));&quot;&gt;:&lt;/span&gt;&lt;div&gt;&lt;div&gt;192.168.2.0/24&lt;/div&gt;&lt;/div&gt;" style="points=[[0,0],[0.25,0],[0.5,0],[0.75,0],[1,0],[1,0.25],[1,0.5],[1,0.75],[1,1],[0.75,1],[0.5,1],[0.25,1],[0,1],[0,0.75],[0,0.5],[0,0.25]];outlineConnect=0;gradientColor=none;html=1;whiteSpace=wrap;fontSize=12;fontStyle=0;container=1;pointerEvents=0;collapsible=0;recursiveResize=0;shape=mxgraph.aws4.group;grIcon=mxgraph.aws4.group_security_group;grStroke=0;strokeColor=#7AA116;fillColor=#F2F6E8;verticalAlign=top;align=left;spacingLeft=30;fontColor=#248814;dashed=0;" vertex="1" parent="1">
          <mxGeometry x="600" y="160" width="260" height="240" as="geometry" />
        </mxCell>
        <mxCell id="iYWicuMfS2cpyW_Yxhfx-1" value="proyrepo" style="sketch=0;points=[[0,0,0],[0.25,0,0],[0.5,0,0],[0.75,0,0],[1,0,0],[0,1,0],[0.25,1,0],[0.5,1,0],[0.75,1,0],[1,1,0],[0,0.25,0],[0,0.5,0],[0,0.75,0],[1,0.25,0],[1,0.5,0],[1,0.75,0]];outlineConnect=0;fontColor=#232F3E;fillColor=#ED7100;strokeColor=#ffffff;dashed=0;verticalLabelPosition=bottom;verticalAlign=top;align=center;html=1;fontSize=12;fontStyle=0;aspect=fixed;shape=mxgraph.aws4.resourceIcon;resIcon=mxgraph.aws4.ecr;" vertex="1" parent="1">
          <mxGeometry x="423" width="78" height="78" as="geometry" />
        </mxCell>
        <mxCell id="iYWicuMfS2cpyW_Yxhfx-2" value="proy_flask_container" style="sketch=0;outlineConnect=0;fontColor=#232F3E;gradientColor=none;fillColor=#ED7100;strokeColor=none;dashed=0;verticalLabelPosition=bottom;verticalAlign=top;align=center;html=1;fontSize=12;fontStyle=0;aspect=fixed;pointerEvents=1;shape=mxgraph.aws4.container_registry_image;" vertex="1" parent="1">
          <mxGeometry x="375" y="50" width="48" height="48" as="geometry" />
        </mxCell>
        <mxCell id="iYWicuMfS2cpyW_Yxhfx-5" value="proy-cluster" style="sketch=0;points=[[0,0,0],[0.25,0,0],[0.5,0,0],[0.75,0,0],[1,0,0],[0,1,0],[0.25,1,0],[0.5,1,0],[0.75,1,0],[1,1,0],[0,0.25,0],[0,0.5,0],[0,0.75,0],[1,0.25,0],[1,0.5,0],[1,0.75,0]];outlineConnect=0;fontColor=#232F3E;fillColor=#ED7100;strokeColor=#ffffff;dashed=0;verticalLabelPosition=bottom;verticalAlign=top;align=center;html=1;fontSize=12;fontStyle=0;aspect=fixed;shape=mxgraph.aws4.resourceIcon;resIcon=mxgraph.aws4.ecs;" vertex="1" parent="1">
          <mxGeometry x="360" y="590" width="78" height="78" as="geometry" />
        </mxCell>
        <mxCell id="iYWicuMfS2cpyW_Yxhfx-14" style="edgeStyle=orthogonalEdgeStyle;rounded=0;orthogonalLoop=1;jettySize=auto;html=1;" edge="1" parent="1" source="iYWicuMfS2cpyW_Yxhfx-8" target="iYWicuMfS2cpyW_Yxhfx-11">
          <mxGeometry relative="1" as="geometry" />
        </mxCell>
        <mxCell id="iYWicuMfS2cpyW_Yxhfx-15" style="edgeStyle=orthogonalEdgeStyle;rounded=0;orthogonalLoop=1;jettySize=auto;html=1;" edge="1" parent="1" source="iYWicuMfS2cpyW_Yxhfx-8" target="iYWicuMfS2cpyW_Yxhfx-13">
          <mxGeometry relative="1" as="geometry" />
        </mxCell>
        <mxCell id="iYWicuMfS2cpyW_Yxhfx-16" style="edgeStyle=orthogonalEdgeStyle;rounded=0;orthogonalLoop=1;jettySize=auto;html=1;" edge="1" parent="1" source="iYWicuMfS2cpyW_Yxhfx-8" target="iYWicuMfS2cpyW_Yxhfx-12">
          <mxGeometry relative="1" as="geometry" />
        </mxCell>
        <mxCell id="iYWicuMfS2cpyW_Yxhfx-23" style="edgeStyle=orthogonalEdgeStyle;rounded=0;orthogonalLoop=1;jettySize=auto;html=1;" edge="1" parent="1" source="iYWicuMfS2cpyW_Yxhfx-8" target="iYWicuMfS2cpyW_Yxhfx-5">
          <mxGeometry relative="1" as="geometry" />
        </mxCell>
        <mxCell id="iYWicuMfS2cpyW_Yxhfx-49" style="edgeStyle=orthogonalEdgeStyle;rounded=0;orthogonalLoop=1;jettySize=auto;html=1;" edge="1" parent="1" source="iYWicuMfS2cpyW_Yxhfx-8" target="iYWicuMfS2cpyW_Yxhfx-36">
          <mxGeometry relative="1" as="geometry" />
        </mxCell>
        <mxCell id="iYWicuMfS2cpyW_Yxhfx-8" value="" style="sketch=0;outlineConnect=0;fontColor=#232F3E;gradientColor=none;fillColor=#ED7100;strokeColor=none;dashed=0;verticalLabelPosition=bottom;verticalAlign=top;align=center;html=1;fontSize=12;fontStyle=0;aspect=fixed;pointerEvents=1;shape=mxgraph.aws4.ecs_service;" vertex="1" parent="1">
          <mxGeometry x="379.5" y="370" width="39" height="48" as="geometry" />
        </mxCell>
        <mxCell id="iYWicuMfS2cpyW_Yxhfx-18" style="edgeStyle=orthogonalEdgeStyle;rounded=0;orthogonalLoop=1;jettySize=auto;html=1;" edge="1" parent="1" source="iYWicuMfS2cpyW_Yxhfx-11" target="iYWicuMfS2cpyW_Yxhfx-2">
          <mxGeometry relative="1" as="geometry" />
        </mxCell>
        <mxCell id="iYWicuMfS2cpyW_Yxhfx-11" value="" style="sketch=0;outlineConnect=0;fontColor=#232F3E;gradientColor=none;fillColor=#ED7100;strokeColor=none;dashed=0;verticalLabelPosition=bottom;verticalAlign=top;align=center;html=1;fontSize=12;fontStyle=0;aspect=fixed;pointerEvents=1;shape=mxgraph.aws4.ecs_task;" vertex="1" parent="1">
          <mxGeometry x="380.5" y="200" width="37" height="48" as="geometry" />
        </mxCell>
        <mxCell id="iYWicuMfS2cpyW_Yxhfx-17" style="edgeStyle=orthogonalEdgeStyle;rounded=0;orthogonalLoop=1;jettySize=auto;html=1;" edge="1" parent="1" source="iYWicuMfS2cpyW_Yxhfx-12" target="iYWicuMfS2cpyW_Yxhfx-2">
          <mxGeometry relative="1" as="geometry">
            <Array as="points">
              <mxPoint x="342" y="170" />
              <mxPoint x="399" y="170" />
            </Array>
          </mxGeometry>
        </mxCell>
        <mxCell id="iYWicuMfS2cpyW_Yxhfx-12" value="" style="sketch=0;outlineConnect=0;fontColor=#232F3E;gradientColor=none;fillColor=#ED7100;strokeColor=none;dashed=0;verticalLabelPosition=bottom;verticalAlign=top;align=center;html=1;fontSize=12;fontStyle=0;aspect=fixed;pointerEvents=1;shape=mxgraph.aws4.ecs_task;" vertex="1" parent="1">
          <mxGeometry x="323" y="200" width="37" height="48" as="geometry" />
        </mxCell>
        <mxCell id="iYWicuMfS2cpyW_Yxhfx-19" style="edgeStyle=orthogonalEdgeStyle;rounded=0;orthogonalLoop=1;jettySize=auto;html=1;" edge="1" parent="1" source="iYWicuMfS2cpyW_Yxhfx-13" target="iYWicuMfS2cpyW_Yxhfx-2">
          <mxGeometry relative="1" as="geometry">
            <Array as="points">
              <mxPoint x="460" y="170" />
              <mxPoint x="399" y="170" />
            </Array>
          </mxGeometry>
        </mxCell>
        <mxCell id="iYWicuMfS2cpyW_Yxhfx-13" value="" style="sketch=0;outlineConnect=0;fontColor=#232F3E;gradientColor=none;fillColor=#ED7100;strokeColor=none;dashed=0;verticalLabelPosition=bottom;verticalAlign=top;align=center;html=1;fontSize=12;fontStyle=0;aspect=fixed;pointerEvents=1;shape=mxgraph.aws4.ecs_task;" vertex="1" parent="1">
          <mxGeometry x="438" y="200" width="37" height="48" as="geometry" />
        </mxCell>
        <mxCell id="iYWicuMfS2cpyW_Yxhfx-20" value="Tareas ECS" style="text;html=1;align=center;verticalAlign=middle;whiteSpace=wrap;rounded=0;" vertex="1" parent="1">
          <mxGeometry x="480" y="209" width="60" height="30" as="geometry" />
        </mxCell>
        <mxCell id="iYWicuMfS2cpyW_Yxhfx-21" value="Servicio ECS" style="text;html=1;align=center;verticalAlign=middle;whiteSpace=wrap;rounded=0;" vertex="1" parent="1">
          <mxGeometry x="480" y="379" width="60" height="30" as="geometry" />
        </mxCell>
        <mxCell id="iYWicuMfS2cpyW_Yxhfx-26" style="edgeStyle=orthogonalEdgeStyle;rounded=0;orthogonalLoop=1;jettySize=auto;html=1;dashed=1;" edge="1" parent="1" source="iYWicuMfS2cpyW_Yxhfx-25" target="iYWicuMfS2cpyW_Yxhfx-2">
          <mxGeometry relative="1" as="geometry">
            <Array as="points">
              <mxPoint x="184" y="74" />
            </Array>
          </mxGeometry>
        </mxCell>
        <mxCell id="iYWicuMfS2cpyW_Yxhfx-31" value="proy-private-subnet-1:&lt;div&gt;192.168.4.0/24&lt;/div&gt;" style="points=[[0,0],[0.25,0],[0.5,0],[0.75,0],[1,0],[1,0.25],[1,0.5],[1,0.75],[1,1],[0.75,1],[0.5,1],[0.25,1],[0,1],[0,0.75],[0,0.5],[0,0.25]];outlineConnect=0;gradientColor=none;html=1;whiteSpace=wrap;fontSize=12;fontStyle=0;container=1;pointerEvents=0;collapsible=0;recursiveResize=0;shape=mxgraph.aws4.group;grIcon=mxgraph.aws4.group_security_group;grStroke=0;strokeColor=#00A4A6;fillColor=#E6F6F7;verticalAlign=top;align=left;spacingLeft=30;fontColor=#147EBA;dashed=0;" vertex="1" parent="1">
          <mxGeometry x="10" y="436" width="260" height="274" as="geometry" />
        </mxCell>
        <mxCell id="iYWicuMfS2cpyW_Yxhfx-41" value="proy-cluster&#39;s ECS Instance" style="sketch=0;outlineConnect=0;fontColor=#232F3E;gradientColor=none;fillColor=#ED7100;strokeColor=none;dashed=0;verticalLabelPosition=bottom;verticalAlign=top;align=center;html=1;fontSize=12;fontStyle=0;aspect=fixed;pointerEvents=1;shape=mxgraph.aws4.instance2;" vertex="1" parent="iYWicuMfS2cpyW_Yxhfx-31">
          <mxGeometry x="106" y="134" width="48" height="48" as="geometry" />
        </mxCell>
        <mxCell id="iYWicuMfS2cpyW_Yxhfx-36" value="proy-alb" style="sketch=0;outlineConnect=0;fontColor=#232F3E;gradientColor=none;fillColor=#8C4FFF;strokeColor=none;dashed=0;verticalLabelPosition=bottom;verticalAlign=top;align=center;html=1;fontSize=12;fontStyle=0;aspect=fixed;pointerEvents=1;shape=mxgraph.aws4.application_load_balancer;" vertex="1" parent="1">
          <mxGeometry x="910" y="286" width="78" height="78" as="geometry" />
        </mxCell>
        <mxCell id="iYWicuMfS2cpyW_Yxhfx-39" value="proy-private-subnet-2:&lt;div&gt;192.168.5.0/24&lt;/div&gt;" style="points=[[0,0],[0.25,0],[0.5,0],[0.75,0],[1,0],[1,0.25],[1,0.5],[1,0.75],[1,1],[0.75,1],[0.5,1],[0.25,1],[0,1],[0,0.75],[0,0.5],[0,0.25]];outlineConnect=0;gradientColor=none;html=1;whiteSpace=wrap;fontSize=12;fontStyle=0;container=1;pointerEvents=0;collapsible=0;recursiveResize=0;shape=mxgraph.aws4.group;grIcon=mxgraph.aws4.group_security_group;grStroke=0;strokeColor=#00A4A6;fillColor=#E6F6F7;verticalAlign=top;align=left;spacingLeft=30;fontColor=#147EBA;dashed=0;" vertex="1" parent="1">
          <mxGeometry x="600" y="436" width="260" height="274" as="geometry" />
        </mxCell>
        <mxCell id="iYWicuMfS2cpyW_Yxhfx-42" value="proy-cluster&#39;s ECS Instance" style="sketch=0;outlineConnect=0;fontColor=#232F3E;gradientColor=none;fillColor=#ED7100;strokeColor=none;dashed=0;verticalLabelPosition=bottom;verticalAlign=top;align=center;html=1;fontSize=12;fontStyle=0;aspect=fixed;pointerEvents=1;shape=mxgraph.aws4.instance2;" vertex="1" parent="iYWicuMfS2cpyW_Yxhfx-39">
          <mxGeometry x="106" y="134" width="48" height="48" as="geometry" />
        </mxCell>
        <mxCell id="iYWicuMfS2cpyW_Yxhfx-40" value="proy-private-subnet-3:&lt;div&gt;192.168.6&lt;span style=&quot;background-color: transparent; color: light-dark(rgb(20, 126, 186), rgb(69, 160, 212));&quot;&gt;.0/24&lt;/span&gt;&lt;/div&gt;" style="points=[[0,0],[0.25,0],[0.5,0],[0.75,0],[1,0],[1,0.25],[1,0.5],[1,0.75],[1,1],[0.75,1],[0.5,1],[0.25,1],[0,1],[0,0.75],[0,0.5],[0,0.25]];outlineConnect=0;gradientColor=none;html=1;whiteSpace=wrap;fontSize=12;fontStyle=0;container=1;pointerEvents=0;collapsible=0;recursiveResize=0;shape=mxgraph.aws4.group;grIcon=mxgraph.aws4.group_security_group;grStroke=0;strokeColor=#00A4A6;fillColor=#E6F6F7;verticalAlign=top;align=left;spacingLeft=30;fontColor=#147EBA;dashed=0;" vertex="1" parent="1">
          <mxGeometry x="1010" y="436" width="260" height="274" as="geometry" />
        </mxCell>
        <mxCell id="iYWicuMfS2cpyW_Yxhfx-43" value="proy-cluster&#39;s ECS Instance" style="sketch=0;outlineConnect=0;fontColor=#232F3E;gradientColor=none;fillColor=#ED7100;strokeColor=none;dashed=0;verticalLabelPosition=bottom;verticalAlign=top;align=center;html=1;fontSize=12;fontStyle=0;aspect=fixed;pointerEvents=1;shape=mxgraph.aws4.instance2;" vertex="1" parent="iYWicuMfS2cpyW_Yxhfx-40">
          <mxGeometry x="106" y="134" width="48" height="48" as="geometry" />
        </mxCell>
        <mxCell id="iYWicuMfS2cpyW_Yxhfx-44" value="proy-TaskSecurityGroup" style="fillColor=none;strokeColor=#DD3522;verticalAlign=top;fontStyle=0;fontColor=#DD3522;whiteSpace=wrap;html=1;" vertex="1" parent="iYWicuMfS2cpyW_Yxhfx-40">
          <mxGeometry x="-960" y="104" width="1170" height="156" as="geometry" />
        </mxCell>
        <mxCell id="iYWicuMfS2cpyW_Yxhfx-65" value="Auto Scaling group" style="points=[[0,0],[0.25,0],[0.5,0],[0.75,0],[1,0],[1,0.25],[1,0.5],[1,0.75],[1,1],[0.75,1],[0.5,1],[0.25,1],[0,1],[0,0.75],[0,0.5],[0,0.25]];outlineConnect=0;gradientColor=none;html=1;whiteSpace=wrap;fontSize=12;fontStyle=0;container=1;pointerEvents=0;collapsible=0;recursiveResize=0;shape=mxgraph.aws4.groupCenter;grIcon=mxgraph.aws4.group_auto_scaling_group;grStroke=1;strokeColor=#D86613;fillColor=none;verticalAlign=top;align=center;fontColor=#D86613;dashed=1;spacingTop=25;" vertex="1" parent="iYWicuMfS2cpyW_Yxhfx-40">
          <mxGeometry x="-990" y="40" width="1230" height="230" as="geometry" />
        </mxCell>
        <mxCell id="iYWicuMfS2cpyW_Yxhfx-47" value="us-east-1b" style="fillColor=none;strokeColor=#147EBA;dashed=1;verticalAlign=top;fontStyle=0;fontColor=#147EBA;whiteSpace=wrap;html=1;" vertex="1" parent="1">
          <mxGeometry x="565" y="120" width="330" height="600" as="geometry" />
        </mxCell>
        <mxCell id="iYWicuMfS2cpyW_Yxhfx-38" value="proy-BalancerSecurityGroup" style="fillColor=none;strokeColor=#DD3522;verticalAlign=top;fontStyle=0;fontColor=#DD3522;whiteSpace=wrap;html=1;" vertex="1" parent="1">
          <mxGeometry x="824" y="260" width="250" height="130" as="geometry" />
        </mxCell>
        <mxCell id="iYWicuMfS2cpyW_Yxhfx-37" value="" style="fillColor=none;strokeColor=#9673a6;dashed=1;verticalAlign=top;fontStyle=0;whiteSpace=wrap;html=1;" vertex="1" parent="1">
          <mxGeometry x="170" y="260" width="980" height="130" as="geometry" />
        </mxCell>
        <mxCell id="iYWicuMfS2cpyW_Yxhfx-53" style="edgeStyle=orthogonalEdgeStyle;rounded=0;orthogonalLoop=1;jettySize=auto;html=1;entryX=0.796;entryY=0.231;entryDx=0;entryDy=0;entryPerimeter=0;" edge="1" parent="1" source="iYWicuMfS2cpyW_Yxhfx-52" target="iYWicuMfS2cpyW_Yxhfx-37">
          <mxGeometry relative="1" as="geometry" />
        </mxCell>
        <mxCell id="iYWicuMfS2cpyW_Yxhfx-57" style="edgeStyle=orthogonalEdgeStyle;rounded=0;orthogonalLoop=1;jettySize=auto;html=1;" edge="1" parent="1" source="iYWicuMfS2cpyW_Yxhfx-54" target="iYWicuMfS2cpyW_Yxhfx-56">
          <mxGeometry relative="1" as="geometry" />
        </mxCell>
        <mxCell id="iYWicuMfS2cpyW_Yxhfx-54" value="CSV" style="whiteSpace=wrap;html=1;shape=mxgraph.basic.document" vertex="1" parent="1">
          <mxGeometry x="600" y="-11" width="100" height="100" as="geometry" />
        </mxCell>
        <mxCell id="iYWicuMfS2cpyW_Yxhfx-59" style="edgeStyle=orthogonalEdgeStyle;rounded=0;orthogonalLoop=1;jettySize=auto;html=1;" edge="1" parent="1" source="iYWicuMfS2cpyW_Yxhfx-56" target="iYWicuMfS2cpyW_Yxhfx-58">
          <mxGeometry relative="1" as="geometry" />
        </mxCell>
        <mxCell id="iYWicuMfS2cpyW_Yxhfx-56" value="proy-landing-${AWS::AccountId}-${AWS::Region}" style="sketch=0;outlineConnect=0;fontColor=#232F3E;gradientColor=none;fillColor=#7AA116;strokeColor=none;dashed=0;verticalLabelPosition=bottom;verticalAlign=top;align=center;html=1;fontSize=12;fontStyle=0;aspect=fixed;pointerEvents=1;shape=mxgraph.aws4.bucket;" vertex="1" parent="1">
          <mxGeometry x="820" width="75" height="78" as="geometry" />
        </mxCell>
        <mxCell id="iYWicuMfS2cpyW_Yxhfx-61" style="edgeStyle=orthogonalEdgeStyle;rounded=0;orthogonalLoop=1;jettySize=auto;html=1;" edge="1" parent="1" source="iYWicuMfS2cpyW_Yxhfx-58" target="iYWicuMfS2cpyW_Yxhfx-60">
          <mxGeometry relative="1" as="geometry" />
        </mxCell>
        <mxCell id="iYWicuMfS2cpyW_Yxhfx-63" style="edgeStyle=orthogonalEdgeStyle;rounded=0;orthogonalLoop=1;jettySize=auto;html=1;" edge="1" parent="1" source="iYWicuMfS2cpyW_Yxhfx-58" target="iYWicuMfS2cpyW_Yxhfx-62">
          <mxGeometry relative="1" as="geometry">
            <Array as="points">
              <mxPoint x="1370" y="40" />
              <mxPoint x="1370" y="170" />
            </Array>
          </mxGeometry>
        </mxCell>
        <mxCell id="iYWicuMfS2cpyW_Yxhfx-58" value="proy-lambda" style="sketch=0;outlineConnect=0;fontColor=#232F3E;gradientColor=none;fillColor=#ED7100;strokeColor=none;dashed=0;verticalLabelPosition=bottom;verticalAlign=top;align=center;html=1;fontSize=12;fontStyle=0;aspect=fixed;pointerEvents=1;shape=mxgraph.aws4.lambda_function;" vertex="1" parent="1">
          <mxGeometry x="1074" y="15" width="48" height="48" as="geometry" />
        </mxCell>
        <mxCell id="iYWicuMfS2cpyW_Yxhfx-60" value="proy-stats" style="sketch=0;points=[[0,0,0],[0.25,0,0],[0.5,0,0],[0.75,0,0],[1,0,0],[0,1,0],[0.25,1,0],[0.5,1,0],[0.75,1,0],[1,1,0],[0,0.25,0],[0,0.5,0],[0,0.75,0],[1,0.25,0],[1,0.5,0],[1,0.75,0]];outlineConnect=0;fontColor=#232F3E;fillColor=#C925D1;strokeColor=#ffffff;dashed=0;verticalLabelPosition=bottom;verticalAlign=top;align=center;html=1;fontSize=12;fontStyle=0;aspect=fixed;shape=mxgraph.aws4.resourceIcon;resIcon=mxgraph.aws4.dynamodb;" vertex="1" parent="1">
          <mxGeometry x="1390" width="78" height="78" as="geometry" />
        </mxCell>
        <mxCell id="iYWicuMfS2cpyW_Yxhfx-62" value="proy-sns" style="sketch=0;points=[[0,0,0],[0.25,0,0],[0.5,0,0],[0.75,0,0],[1,0,0],[0,1,0],[0.25,1,0],[0.5,1,0],[0.75,1,0],[1,1,0],[0,0.25,0],[0,0.5,0],[0,0.75,0],[1,0.25,0],[1,0.5,0],[1,0.75,0]];outlineConnect=0;fontColor=#232F3E;fillColor=#E7157B;strokeColor=#ffffff;dashed=0;verticalLabelPosition=bottom;verticalAlign=top;align=center;html=1;fontSize=12;fontStyle=0;aspect=fixed;shape=mxgraph.aws4.resourceIcon;resIcon=mxgraph.aws4.sns;" vertex="1" parent="1">
          <mxGeometry x="1390" y="131" width="78" height="78" as="geometry" />
        </mxCell>
        <mxCell id="iYWicuMfS2cpyW_Yxhfx-67" value="AWS Cloud" style="points=[[0,0],[0.25,0],[0.5,0],[0.75,0],[1,0],[1,0.25],[1,0.5],[1,0.75],[1,1],[0.75,1],[0.5,1],[0.25,1],[0,1],[0,0.75],[0,0.5],[0,0.25]];outlineConnect=0;gradientColor=none;html=1;whiteSpace=wrap;fontSize=12;fontStyle=0;container=1;pointerEvents=0;collapsible=0;recursiveResize=0;shape=mxgraph.aws4.group;grIcon=mxgraph.aws4.group_aws_cloud_alt;strokeColor=#232F3E;fillColor=none;verticalAlign=top;align=left;spacingLeft=30;fontColor=#232F3E;dashed=0;" vertex="1" parent="1">
          <mxGeometry x="-270" y="-67" width="1830" height="867" as="geometry" />
        </mxCell>
        <mxCell id="iYWicuMfS2cpyW_Yxhfx-68" value="proy-databases" style="sketch=0;outlineConnect=0;fontColor=#232F3E;gradientColor=none;fillColor=#E7157B;strokeColor=none;dashed=0;verticalLabelPosition=bottom;verticalAlign=top;align=center;html=1;fontSize=12;fontStyle=0;aspect=fixed;pointerEvents=1;shape=mxgraph.aws4.stack;" vertex="1" parent="iYWicuMfS2cpyW_Yxhfx-67">
          <mxGeometry x="1660" y="381" width="78" height="76" as="geometry" />
        </mxCell>
        <mxCell id="iYWicuMfS2cpyW_Yxhfx-70" value="proy-testinstance" style="sketch=0;outlineConnect=0;fontColor=#232F3E;gradientColor=none;fillColor=#E7157B;strokeColor=none;dashed=0;verticalLabelPosition=bottom;verticalAlign=top;align=center;html=1;fontSize=12;fontStyle=0;aspect=fixed;pointerEvents=1;shape=mxgraph.aws4.stack;" vertex="1" parent="iYWicuMfS2cpyW_Yxhfx-67">
          <mxGeometry x="1660" y="587" width="78" height="76" as="geometry" />
        </mxCell>
        <mxCell id="iYWicuMfS2cpyW_Yxhfx-71" value="proy-cluster" style="sketch=0;outlineConnect=0;fontColor=#232F3E;gradientColor=none;fillColor=#E7157B;strokeColor=none;dashed=0;verticalLabelPosition=bottom;verticalAlign=top;align=center;html=1;fontSize=12;fontStyle=0;aspect=fixed;pointerEvents=1;shape=mxgraph.aws4.stack;" vertex="1" parent="iYWicuMfS2cpyW_Yxhfx-67">
          <mxGeometry x="1660" y="687" width="78" height="76" as="geometry" />
        </mxCell>
        <mxCell id="iYWicuMfS2cpyW_Yxhfx-73" value="CloudFormation&lt;div&gt;Stacks&lt;/div&gt;" style="fillColor=none;strokeColor=#5A6C86;dashed=1;verticalAlign=top;fontStyle=0;fontColor=#5A6C86;whiteSpace=wrap;html=1;" vertex="1" parent="iYWicuMfS2cpyW_Yxhfx-67">
          <mxGeometry x="1634" y="337" width="130" height="473" as="geometry" />
        </mxCell>
      </root>
    </mxGraphModel>
  </diagram>
</mxfile>
